<?xml version="1.0" encoding="utf-8"?>
<!-- Generator: Adobe Illustrator 16.0.0, SVG Export Plug-In . SVG Version: 6.00 Build 0)  -->
<!DOCTYPE svg PUBLIC "-//W3C//DTD SVG 1.1//EN" "http://www.w3.org/Graphics/SVG/1.1/DTD/svg11.dtd">
<svg version="1.1" id="Layer_1" xmlns="http://www.w3.org/2000/svg" xmlns:xlink="http://www.w3.org/1999/xlink" x="0px" y="0px"
	 width="80px" height="137.667px" viewBox="0 0 80 137.667" enable-background="new 0 0 80 137.667" xml:space="preserve">
<g>
	<g>
		<defs>
			<rect id="SVGID_1_" x="3.764" y="2.445" width="73.449" height="132.555"/>
		</defs>
		<clipPath id="SVGID_2_">
			<use xlink:href="#SVGID_1_"  overflow="visible"/>
		</clipPath>
		<g clip-path="url(#SVGID_2_)">
			<defs>
				<rect id="SVGID_3_" x="-31.044" y="0.03" width="137.122" height="137.121"/>
			</defs>
			<clipPath id="SVGID_4_">
				<use xlink:href="#SVGID_3_"  overflow="visible"/>
			</clipPath>
			<path clip-path="url(#SVGID_4_)" fill="#2D4D79" d="M57.911,117.083c0,2.876-2.334,5.211-5.212,5.211H28.007
				c-2.879,0-5.213-2.335-5.213-5.211c0-2.881,2.334-5.213,5.213-5.213h24.692C55.577,111.87,57.911,114.202,57.911,117.083"/>
			<path clip-path="url(#SVGID_4_)" fill="#2D4D79" d="M27.507,125.164L27.507,125.164c0,5.5,3.009,9.836,11.843,9.836
				c8.831,0,13.302-4.336,13.302-9.836H27.507z"/>
			<path clip-path="url(#SVGID_4_)" fill="#CAAE6B" d="M53.68,89.541c0,2.622-2.236,4.747-4.992,4.747s-4.988-2.125-4.988-4.747
				c0-2.62,2.232-4.743,4.988-4.743S53.68,86.921,53.68,89.541"/>
			<path clip-path="url(#SVGID_4_)" fill="#BE9769" d="M66.51,61.416c0,2.617-2.231,4.744-4.988,4.744
				c-2.758,0-4.993-2.127-4.993-4.744c0-2.621,2.235-4.744,4.993-4.744C64.278,56.672,66.51,58.795,66.51,61.416"/>
			<path clip-path="url(#SVGID_4_)" fill="#D5DF8F" d="M58.875,17.745c0,2.059-1.756,3.728-3.921,3.728
				c-2.166,0-3.921-1.669-3.921-3.728s1.755-3.727,3.921-3.727C57.119,14.018,58.875,15.687,58.875,17.745"/>
			<path clip-path="url(#SVGID_4_)" fill="#C7D47A" d="M54.392,41.365c0,4.679-3.99,8.471-8.911,8.471
				c-4.92,0-8.91-3.792-8.91-8.471c0-4.678,3.99-8.472,8.91-8.472C50.401,32.894,54.392,36.687,54.392,41.365"/>
		</g>
		<g clip-path="url(#SVGID_2_)">
			<defs>
				<path id="SVGID_5_" d="M25.056,21.5c0,4.118,3.192,7.456,7.129,7.456c3.938,0,7.129-3.338,7.129-7.456s-3.191-7.455-7.129-7.455
					C28.248,14.045,25.056,17.383,25.056,21.5"/>
			</defs>
			<clipPath id="SVGID_6_">
				<use xlink:href="#SVGID_5_"  overflow="visible"/>
			</clipPath>
			
				<radialGradient id="SVGID_7_" cx="-5.4922" cy="-18.2983" r="0.6854" gradientTransform="matrix(10.9318 0 0 -10.393 92.2266 -168.6797)" gradientUnits="userSpaceOnUse">
				<stop  offset="0" style="stop-color:#FFFFFF"/>
				<stop  offset="1" style="stop-color:#6B9FD5"/>
			</radialGradient>
			<rect x="25.056" y="14.045" clip-path="url(#SVGID_6_)" fill="url(#SVGID_7_)" width="14.258" height="14.911"/>
		</g>
		<g clip-path="url(#SVGID_2_)">
			<defs>
				<path id="SVGID_8_" d="M39.476,6.172c0,2.057,1.598,3.727,3.564,3.727c1.97,0,3.564-1.67,3.564-3.727
					c0-2.059-1.595-3.728-3.564-3.728C41.073,2.445,39.476,4.113,39.476,6.172"/>
			</defs>
			<clipPath id="SVGID_9_">
				<use xlink:href="#SVGID_8_"  overflow="visible"/>
			</clipPath>
			
				<radialGradient id="SVGID_10_" cx="-11.8936" cy="-37.9463" r="0.6864" gradientTransform="matrix(5.4669 0 0 -5.1974 108.0586 -191.0469)" gradientUnits="userSpaceOnUse">
				<stop  offset="0" style="stop-color:#FFFFFF"/>
				<stop  offset="1" style="stop-color:#6B9FD5"/>
			</radialGradient>
			<rect x="39.476" y="2.445" clip-path="url(#SVGID_9_)" fill="url(#SVGID_10_)" width="7.129" height="7.455"/>
		</g>
		<g clip-path="url(#SVGID_2_)">
			<defs>
				<rect id="SVGID_11_" x="-31.044" y="0.03" width="137.122" height="137.121"/>
			</defs>
			<clipPath id="SVGID_12_">
				<use xlink:href="#SVGID_11_"  overflow="visible"/>
			</clipPath>
			<path clip-path="url(#SVGID_12_)" fill="#CCAB7E" d="M40.655,69.278c0,4.677-3.988,8.472-8.911,8.472
				c-4.922,0-8.911-3.795-8.911-8.472c0-4.682,3.989-8.474,8.911-8.474C36.667,60.805,40.655,64.597,40.655,69.278"/>
			<path clip-path="url(#SVGID_12_)" fill="#2D4D79" d="M18.1,29.808c0,0,1.762-1.091,3.476-0.234
				c1.714,0.857,1.542,2.913,1.542,2.913v-0.172c0,0-0.205,1.948-0.389,2.231c-0.183,0.282-7.04,5.881-9.096,10.109
				c-2.057,4.228-4.856,9.312-3.428,19.139c0,0,0.687,8.171,9.371,16.396c0,0,2.229,1.715,3.428,4.914c0,0,3.201,9.081,8.342,13.024
				c0,0,3.656,3.543,11.141,2.801c7.486-0.745,12.112-9.771,12.112-9.771s3.602-7.654,5.429-9.768c0,0,2.569-2.515,2.915-2.742
				c0.339-0.229,9.54-7.943,7.882-23.541c0,0,0.173-5.771-6.226-14.169c0,0-3.716-4.572-7.028-6.171c0,0-1.484-1.541-0.799-3.713
				c0,0,0.685-2.456,3.485-2.513c0,0,3.6,0.17,8.055,4.514c4.457,4.34,6.742,11.253,6.742,11.253s2.856,10.112,1.998,14.797
				c0,0,0.06,3.77-1.938,9.54c-2.001,5.772-6.061,11.371-9.488,14.17c-3.428,2.797-4.627,6.685-5.025,7.196
				c-0.4,0.518-3.943,8.002-4.857,8.973c-0.915,0.971-3.315,4.744-4.856,5.601c-1.543,0.859-2.113,1.887-6.397,3.145
				c-4.287,1.256-9.371-0.228-9.371-0.228s-3.03-0.631-6.458-3.603c-3.428-2.971-6.685-10-8.626-14.112
				c-1.942-4.115-2.171-3.942-2.742-4.744c-0.573-0.799-3.258-3.256-3.258-3.256s-4.457-3.54-8.627-13.54c0,0-3.085-7.885-0.8-18.34
				C4.606,49.908,7.711,36.733,18.1,29.808"/>
		</g>
	</g>
</g>
</svg>
