<?xml version="1.0" encoding="utf-8"?>
<!-- Generator: Adobe Illustrator 17.0.0, SVG Export Plug-In . SVG Version: 6.00 Build 0)  -->
<!DOCTYPE svg PUBLIC "-//W3C//DTD SVG 1.1//EN" "http://www.w3.org/Graphics/SVG/1.1/DTD/svg11.dtd">
<svg version="1.1" id="Layer_1" xmlns="http://www.w3.org/2000/svg" xmlns:xlink="http://www.w3.org/1999/xlink" x="0px" y="0px"
	 width="500px" height="300px" viewBox="0 0 500 300" enable-background="new 0 0 500 300" xml:space="preserve">
<g>
	<path fill="#231F20" stroke="#FFFFFF" stroke-miterlimit="10" d="M180.203,137.879v35.993c0,0-0.719,39.234,51.471,38.151
		c0,0,58.668,4.682,59.028-37.431v-38.513L180.203,137.879z"/>
	<polygon fill="#231F20" stroke="#FFFFFF" stroke-miterlimit="10" points="391.482,97.208 237.433,161.274 91.301,101.165 
		243.19,38.178 	"/>
</g>
<ellipse fill="#231F20" stroke="#FFFFFF" stroke-width="0.5" stroke-miterlimit="10" cx="240.672" cy="97.208" rx="11.877" ry="8.278"/>
<path fill="none" stroke="#231F20" stroke-width="2" stroke-miterlimit="10" d="M252.549,97.208c0,0,45.831,9.357,61.451,42.471
	v50.39"/>
<g>
	
		<ellipse fill="#231F20" stroke="#FFFFFF" stroke-width="0.5" stroke-miterlimit="10" cx="314.54" cy="197.628" rx="9.359" ry="7.559"/>
	<g>
		<path fill="#231F20" stroke="#FFFFFF" stroke-width="0.5" stroke-miterlimit="10" d="M305.902,202.666L292.583,243.7l3.241,5.041
			l9.717-23.758v25.195c0,0,15.478,2.52,29.875-2.52l-12.239-45.708C322.819,202.308,317.42,209.506,305.902,202.666z"/>
		
			<line fill="#231F20" stroke="#FFFFFF" stroke-width="0.5" stroke-miterlimit="10" x1="310.221" y1="204.466" x2="293.664" y2="245.499"/>
		
			<line fill="#231F20" stroke="#FFFFFF" stroke-width="0.5" stroke-miterlimit="10" x1="312.74" y1="204.828" x2="309.861" y2="250.898"/>
		
			<line fill="#231F20" stroke="#FFFFFF" stroke-width="0.5" stroke-miterlimit="10" x1="315.62" y1="205.549" x2="315.979" y2="251.257"/>
		
			<line fill="#231F20" stroke="#FFFFFF" stroke-width="0.5" stroke-miterlimit="10" x1="319.938" y1="204.466" x2="332.176" y2="249.099"/>
	</g>
</g>
</svg>
