<?xml version="1.0" encoding="utf-8"?>
<!-- Generator: Adobe Illustrator 16.0.0, SVG Export Plug-In . SVG Version: 6.00 Build 0)  -->
<!DOCTYPE svg PUBLIC "-//W3C//DTD SVG 1.1//EN" "http://www.w3.org/Graphics/SVG/1.1/DTD/svg11.dtd">
<svg version="1.1" id="Layer_1" xmlns="http://www.w3.org/2000/svg" xmlns:xlink="http://www.w3.org/1999/xlink" x="0px" y="0px"
	 width="500px" height="300px" viewBox="0 0 500 300" enable-background="new 0 0 500 300" xml:space="preserve">
<path fill="#F3D540" d="M327.043,152.608l14.083-3.788l-0.438-15.368l-13.962-4.221l-3.099-15.397l10.831-9.852l-8.468-14.154
	l-14.091,4.47l-11.17-12.188l4.22-13.962l-13.233-8.208l-11.51,10.512l-15.3-4.241l-4.456-14.079l-14.69-0.22l-3.548,14.628
	l-16.068,2.433l-10.542-9.503l-14.123,6.46l2.444,15.399l-10.851,11.19l-15.296-3.572l-6.854,11.249l10.491,12.847l-4.895,15.276
	l-13.405,3.141l-0.23,15.36l13.953,4.876l3.099,15.409l-9.494,9.872l7.162,12.784l16.064-3.09l10.511,11.51l-3.582,15.965
	l12.607,5.538l11.498-9.845l15.945,4.906l3.152,12.736l16.037-0.428l4.179-11.958l16.078-3.088l9.204,9.483l12.796-7.16
	l-3.112-15.398l12.178-10.5l14.639,2.893l6.854-11.249l-9.843-11.498L327.043,152.608z M249.878,202.167
	c-32.566-0.489-58.578-27.29-58.09-59.859c0.488-32.567,27.291-58.579,59.859-58.091c32.565,0.488,58.578,27.292,58.089,59.858
	C309.249,176.644,282.446,202.654,249.878,202.167z"/>
<path fill="#F3D540" d="M307.355,39.551c-0.678,1.129,0.179,2.889,1.912,3.93l0,0c1.733,1.042,3.688,0.97,4.366-0.159l8.067-13.432
	c0.679-1.129-0.177-2.889-1.911-3.93l0,0c-1.733-1.041-3.688-0.97-4.367,0.159L307.355,39.551z"/>
<path fill="#F3D540" d="M248.413,23.705c0,1.317,1.638,2.385,3.66,2.387l0,0c2.022,0.001,3.662-1.065,3.664-2.382l0.011-15.668
	c0.001-1.317-1.639-2.386-3.66-2.388l0,0c-2.022-0.001-3.663,1.065-3.664,2.382L248.413,23.705z"/>
<path fill="#F3D540" d="M349.946,81.24c-1.164,0.616-1.344,2.563-0.399,4.353l0,0c0.945,1.788,2.655,2.74,3.82,2.124l13.854-7.318
	c1.164-0.615,1.342-2.564,0.399-4.352l0,0c-0.946-1.789-2.655-2.739-3.82-2.125L349.946,81.24z"/>
<path fill="#F3D540" d="M368.217,137.602c-1.316,0.006-2.376,1.651-2.367,3.674l0,0c0.011,2.022,1.087,3.656,2.404,3.649
	l15.669-0.078c1.315-0.006,2.376-1.652,2.365-3.674l0,0c-0.009-2.022-1.085-3.656-2.403-3.65L368.217,137.602z"/>
<path fill="#F3D540" d="M353.38,195.631c-1.164-0.617-2.876,0.331-3.824,2.117l0,0c-0.946,1.788-0.771,3.735,0.392,4.353
	l13.841,7.343c1.163,0.618,2.875-0.33,3.822-2.116l0,0c0.948-1.786,0.773-3.735-0.39-4.354L353.38,195.631z"/>
<path fill="#F3D540" d="M136.719,145.119c1.317,0.001,2.385-1.637,2.387-3.66l0,0c0.001-2.022-1.065-3.663-2.382-3.663
	l-15.668-0.012c-1.317-0.001-2.386,1.638-2.388,3.661l0,0c-0.001,2.022,1.065,3.663,2.382,3.664L136.719,145.119z"/>
<path fill="#F3D540" d="M153.405,201.867c1.146-0.648,1.268-2.601,0.272-4.36l0,0c-0.996-1.76-2.731-2.663-3.878-2.015
	l-13.637,7.715c-1.147,0.648-1.268,2.603-0.273,4.363l0,0c0.996,1.76,2.732,2.66,3.879,2.012L153.405,201.867z"/>
<path fill="#F3D540" d="M149.977,87.444c1.142,0.656,2.884-0.233,3.892-1.987l0,0c1.008-1.753,0.899-3.707-0.243-4.363
	l-13.585-7.807c-1.142-0.657-2.885,0.234-3.893,1.987l0,0c-1.007,1.754-0.899,3.707,0.243,4.363L149.977,87.444z"/>
<path fill="#F3D540" d="M189.553,41.955c0.684,1.125,2.639,1.186,4.368,0.134l0,0c1.728-1.051,2.573-2.815,1.889-3.941
	l-8.144-13.386c-0.684-1.125-2.641-1.184-4.368-0.134l0,0c-1.728,1.051-2.573,2.816-1.889,3.94L189.553,41.955z"/>
<path fill="#B1B1B0" d="M289.209,238.418c0,3.388-2.851,6.132-6.367,6.132H222c-3.517,0-6.367-2.744-6.367-6.132l0,0
	c0-3.387,2.851-6.131,6.367-6.131h60.841C286.358,232.287,289.209,235.031,289.209,238.418L289.209,238.418z"/>
<path fill="#B1B1B0" d="M289.209,254.769c0,3.387-2.851,6.131-6.367,6.131H222c-3.517,0-6.367-2.744-6.367-6.131l0,0
	c0-3.387,2.851-6.132,6.367-6.132h60.841C286.358,248.637,289.209,251.382,289.209,254.769L289.209,254.769z"/>
<path fill="#B1B1B0" d="M289.209,270.438c0,3.386-2.851,6.132-6.367,6.132H222c-3.517,0-6.367-2.746-6.367-6.132l0,0
	c0-3.387,2.851-6.131,6.367-6.131h60.841C286.358,264.307,289.209,267.051,289.209,270.438L289.209,270.438z"/>
<path fill="#B1B1B0" d="M275.868,287.979h-7.721c-8.631,9.084-17.912,8.287-17.912,8.287c-9.083,0-15.243-8.287-15.243-8.287h-7.665
	c0,0-2.895-0.484-2.895-4.231c0,0-0.085-4.002,4.002-4.002c4.088,0,46.836,0,46.836,0s1.4,0.205,1.874,3.406
	C277.486,285.451,276.804,286.644,275.868,287.979z"/>
</svg>
