<?xml version="1.0" encoding="utf-8"?>
<!-- Generator: Adobe Illustrator 16.0.0, SVG Export Plug-In . SVG Version: 6.00 Build 0)  -->
<!DOCTYPE svg PUBLIC "-//W3C//DTD SVG 1.1//EN" "http://www.w3.org/Graphics/SVG/1.1/DTD/svg11.dtd">
<svg version="1.1" id="Layer_1" xmlns="http://www.w3.org/2000/svg" xmlns:xlink="http://www.w3.org/1999/xlink" x="0px" y="0px"
	 width="500px" height="300px" viewBox="0 0 500 300" enable-background="new 0 0 500 300" xml:space="preserve">
<path fill="#222221" stroke="#222221" stroke-width="2" stroke-miterlimit="10" d="M237.45,197.63v97.636h15.599V197.63H237.45z
	 M249.431,288.716h-7.52v-8.422h7.52V288.716z M249.431,270h-7.52v-8.421h7.52V270z M249.431,251.285h-7.52v-8.421h7.52V251.285z
	 M249.431,232.57h-7.52v-8.422h7.52V232.57z M249.431,212.92h-7.52v-8.422h7.52V212.92z"/>
<path fill="#F6C047" d="M251.539,199.005c-3.604,3.605-9.11,3.944-12.295,0.758l-91.33-91.329
	c-3.186-3.186-2.846-8.691,0.758-12.295l89.196-89.196c3.604-3.604,9.109-3.944,12.295-0.758l91.33,91.33
	c3.186,3.185,2.847,8.69-0.758,12.295L251.539,199.005z"/>
<path fill="none" stroke="#222221" stroke-width="2" stroke-miterlimit="10" d="M251.258,191.396
	c-3.302,3.304-8.347,3.613-11.264,0.695l-83.673-83.672c-2.919-2.919-2.607-7.963,0.695-11.265l81.717-81.718
	c3.302-3.303,8.346-3.614,11.264-0.695l83.673,83.673c2.919,2.918,2.607,7.961-0.694,11.264L251.258,191.396z"/>
<path fill="#222221" d="M212.109,81.444l-6.55,8.11c0,0-3.431,2.495-3.743-1.872s-0.936-25.265-0.936-25.265l27.761,0.312
	c0,0,2.808,0.935-0.624,4.055l-5.614,4.679c0,0,20.232,22.109,22.593,31.953c0,0,11.718-21.971,22.012-31.641l-7.175-7.174
	c0,0-0.623-2.495,2.496-2.807l25.888-0.625l-0.936,27.449c0,0-0.312,3.743-3.119-0.312l-5.614-6.862
	c0,0-25.264,21.834-25.576,41.796v48.035h-15.597v-50.218C237.374,121.058,225.833,90.178,212.109,81.444z"/>
<g>
	<path fill="#222221" d="M237.622,41.859c0,0-5.643,2.282-7.204-2.401c0,0-2.521-6.364,7.204-11.407c0,0,8.405-4.083,16.329,0.96
		c0,0,8.526,4.443,6.364,15.249c0,0-1.681,8.885-10.686,9.605c0,0,0,6.244-4.562,6.604c0,0-4.563,0.12-5.283-4.202
		c0,0-1.441-6.484,0.72-8.886c0,0,0.48-1.081,2.762-1.081c0,0,5.163-0.36,5.763-3.122c0,0,2.041-4.442-3.242-6.244
		c0,0-4.203-0.84-5.523,1.921L237.622,41.859z"/>
	<ellipse fill="#222221" cx="244.206" cy="69.571" rx="5.703" ry="5.523"/>
</g>
</svg>
