<?xml version="1.0" encoding="UTF-8" standalone="no"?>
<!-- Generator: Adobe Illustrator 16.0.0, SVG Export Plug-In . SVG Version: 6.00 Build 0)  -->

<svg
   xmlns:dc="http://purl.org/dc/elements/1.1/"
   xmlns:cc="http://creativecommons.org/ns#"
   xmlns:rdf="http://www.w3.org/1999/02/22-rdf-syntax-ns#"
   xmlns:svg="http://www.w3.org/2000/svg"
   xmlns="http://www.w3.org/2000/svg"
   xmlns:sodipodi="http://sodipodi.sourceforge.net/DTD/sodipodi-0.dtd"
   xmlns:inkscape="http://www.inkscape.org/namespaces/inkscape"
   version="1.1"
   id="Layer_1"
   x="0px"
   y="0px"
   width="500px"
   height="300px"
   viewBox="0 0 500 300"
   enable-background="new 0 0 500 300"
   xml:space="preserve"
   inkscape:version="0.48.5 r10040"
   sodipodi:docname="contents-01.svg"><metadata
   id="metadata211"><rdf:RDF><cc:Work
       rdf:about=""><dc:format>image/svg+xml</dc:format><dc:type
         rdf:resource="http://purl.org/dc/dcmitype/StillImage" /></cc:Work></rdf:RDF></metadata><defs
   id="defs209" /><sodipodi:namedview
   pagecolor="#ffffff"
   bordercolor="#666666"
   borderopacity="1"
   objecttolerance="10"
   gridtolerance="10"
   guidetolerance="10"
   inkscape:pageopacity="0"
   inkscape:pageshadow="2"
   inkscape:window-width="1600"
   inkscape:window-height="853"
   id="namedview207"
   showgrid="false"
   inkscape:zoom="1.144"
   inkscape:cx="286.83925"
   inkscape:cy="140.50874"
   inkscape:window-x="-4"
   inkscape:window-y="-4"
   inkscape:window-maximized="1"
   inkscape:current-layer="Layer_1" />
<path
   fill="#FF885F"
   d="M481.666,275.155c0,8.173-6.626,14.799-14.799,14.799H270.775c-8.173,0-14.799-6.626-14.799-14.799V24.799  c0-8.174,6.626-14.799,14.799-14.799h196.092c8.173,0,14.799,6.625,14.799,14.799V275.155z"
   id="path3"
   style="fill:#1c241c" />
<path
   fill="#FFFFFF"
   d="M474.267,269.936c0,7.65-6.174,13.853-13.789,13.853H277.781c-7.615,0-13.789-6.202-13.789-13.853V35.583  c0-7.652,6.174-13.854,13.789-13.854h182.696c7.615,0,13.789,6.203,13.789,13.854V269.936z"
   id="path5" />
<path
   fill="#FF885F"
   d="M253.509,275.155c0,8.173-6.625,14.799-14.799,14.799H42.619c-8.174,0-14.799-6.626-14.799-14.799V24.799  C27.819,16.625,34.445,10,42.619,10H238.71c8.174,0,14.799,6.625,14.799,14.799V275.155z"
   id="path7"
   style="fill:#1c241c" />
<path
   fill="#FFFFFF"
   d="M244.877,269.936c0,7.65-6.175,13.853-13.789,13.853H48.391c-7.615,0-13.789-6.202-13.789-13.853V35.583  c0-7.652,6.174-13.854,13.789-13.854h182.697c7.614,0,13.789,6.203,13.789,13.854V269.936z"
   id="path9" />
<g
   id="g11"
   style="fill:#3e4837">
	<circle
   fill="#E76639"
   cx="232.312"
   cy="38.905"
   r="4.394"
   id="circle13"
   style="fill:#3e4837" />
	<circle
   fill="#222221"
   cx="232.467"
   cy="39.059"
   r="1.773"
   id="circle15"
   style="fill:#3e4837" />
</g>
<g
   id="g17"
   style="fill:#3e4837">
	<circle
   fill="#E76639"
   cx="279.177"
   cy="38.905"
   r="4.394"
   id="circle19"
   style="fill:#3e4837" />
	<circle
   fill="#222221"
   cx="279.331"
   cy="39.059"
   r="1.772"
   id="circle21"
   style="fill:#3e4837" />
</g>


<g
   id="g35"
   style="fill:#3e4837">
	<circle
   fill="#E76639"
   cx="232.312"
   cy="84.536"
   r="4.394"
   id="circle37"
   style="fill:#3e4837" />
	<circle
   fill="#222221"
   cx="232.467"
   cy="84.69"
   r="1.773"
   id="circle39"
   style="fill:#3e4837" />
</g>
<g
   id="g41"
   style="fill:#3e4837">
	<circle
   fill="#E76639"
   cx="279.177"
   cy="84.536"
   r="4.394"
   id="circle43"
   style="fill:#3e4837" />
	<circle
   fill="#222221"
   cx="279.331"
   cy="84.69"
   r="1.772"
   id="circle45"
   style="fill:#3e4837" />
</g>


<g
   id="g59"
   style="fill:#3e4837">
	<circle
   fill="#E76639"
   cx="232.312"
   cy="130.168"
   r="4.394"
   id="circle61"
   style="fill:#3e4837" />
	<circle
   fill="#222221"
   cx="232.467"
   cy="130.322"
   r="1.773"
   id="circle63"
   style="fill:#3e4837" />
</g>
<g
   id="g65"
   style="fill:#3e4837">
	<circle
   fill="#E76639"
   cx="279.177"
   cy="130.168"
   r="4.394"
   id="circle67"
   style="fill:#3e4837" />
	<circle
   fill="#222221"
   cx="279.331"
   cy="130.322"
   r="1.772"
   id="circle69"
   style="fill:#3e4837" />
</g>


<g
   id="g83"
   style="fill:#3e4837">
	<circle
   fill="#E76639"
   cx="232.312"
   cy="175.799"
   r="4.394"
   id="circle85"
   style="fill:#3e4837" />
	<circle
   fill="#222221"
   cx="232.467"
   cy="175.953"
   r="1.773"
   id="circle87"
   style="fill:#3e4837" />
</g>
<g
   id="g89"
   style="fill:#3e4837">
	<circle
   fill="#E76639"
   cx="279.177"
   cy="175.799"
   r="4.394"
   id="circle91"
   style="fill:#3e4837" />
	<circle
   fill="#222221"
   cx="279.331"
   cy="175.953"
   r="1.772"
   id="circle93"
   style="fill:#3e4837" />
</g>


<g
   id="g107"
   style="fill:#3e4837">
	<circle
   fill="#E76639"
   cx="232.312"
   cy="221.43"
   r="4.394"
   id="circle109"
   style="fill:#3e4837" />
	<circle
   fill="#222221"
   cx="232.467"
   cy="221.585"
   r="1.773"
   id="circle111"
   style="fill:#3e4837" />
</g>
<g
   id="g113"
   style="fill:#3e4837">
	<circle
   fill="#E76639"
   cx="279.177"
   cy="221.43"
   r="4.394"
   id="circle115"
   style="fill:#3e4837" />
	<circle
   fill="#222221"
   cx="279.331"
   cy="221.585"
   r="1.772"
   id="circle117"
   style="fill:#3e4837" />
</g>


<g
   id="g131"
   style="fill:#3e4837">
	<circle
   fill="#E76639"
   cx="232.312"
   cy="267.062"
   r="4.394"
   id="circle133"
   style="fill:#3e4837" />
	<circle
   fill="#222221"
   cx="232.467"
   cy="267.216"
   r="1.773"
   id="circle135"
   style="fill:#3e4837" />
</g>
<g
   id="g137"
   style="fill:#3e4837">
	<circle
   fill="#E76639"
   cx="279.177"
   cy="267.062"
   r="4.394"
   id="circle139"
   style="fill:#3e4837" />
	<circle
   fill="#222221"
   cx="279.331"
   cy="267.216"
   r="1.772"
   id="circle141"
   style="fill:#3e4837" />
</g>
<path
   fill="#FFC3AE"
   stroke="#FFC3AE"
   stroke-miterlimit="10"
   d="M233.675,221.045c0,0,40.493,0.151,44.244,0.102  c0,0,2.313,0.914,0,1.37c0,0-42.06,0.116-44.449-0.076C233.47,222.44,231.62,221.478,233.675,221.045z"
   id="path143" />

<path
   fill="#FFC3AE"
   stroke="#FFC3AE"
   stroke-miterlimit="10"
   d="M233.675,266.676c0,0,40.493,0.151,44.244,0.102  c0,0,2.313,0.914,0,1.37c0,0-42.06,0.116-44.449-0.076C233.47,268.071,231.62,267.108,233.675,266.676z"
   id="path147" />

<path
   fill="#FFC3AE"
   stroke="#FFC3AE"
   stroke-miterlimit="10"
   d="M233.675,175.414c0,0,40.493,0.151,44.244,0.101  c0,0,2.313,0.915,0,1.371c0,0-42.06,0.115-44.449-0.076C233.47,176.81,231.62,175.846,233.675,175.414z"
   id="path151" />

<path
   fill="#FFC3AE"
   stroke="#FFC3AE"
   stroke-miterlimit="10"
   d="M233.675,129.783c0,0,40.493,0.151,44.244,0.101  c0,0,2.313,0.913,0,1.371c0,0-42.06,0.116-44.449-0.076C233.47,131.178,231.62,130.215,233.675,129.783z"
   id="path155" />

<path
   fill="#FFC3AE"
   stroke="#FFC3AE"
   stroke-miterlimit="10"
   d="M233.675,84.151c0,0,40.493,0.152,44.244,0.101  c0,0,2.313,0.915,0,1.371c0,0-42.06,0.116-44.449-0.076C233.47,85.547,231.62,84.583,233.675,84.151z"
   id="path159" />

<path
   fill="#FFC3AE"
   stroke="#FFC3AE"
   stroke-miterlimit="10"
   d="M233.675,38.52c0,0,40.493,0.151,44.244,0.102  c0,0,2.313,0.914,0,1.37c0,0-42.06,0.116-44.449-0.076C233.47,39.916,231.62,38.952,233.675,38.52z"
   id="path163" />
<line
   fill="none"
   stroke="#868686"
   stroke-width="0.75"
   stroke-miterlimit="10"
   x1="294.208"
   y1="21.716"
   x2="294.208"
   y2="283.788"
   id="line165" />
<line
   fill="none"
   stroke="#868686"
   stroke-width="0.75"
   stroke-miterlimit="10"
   x1="294.208"
   y1="38.365"
   x2="474.267"
   y2="38.365"
   id="line167" />

<line
   fill="none"
   stroke="#868686"
   stroke-width="0.75"
   stroke-miterlimit="10"
   x1="294.208"
   y1="65.498"
   x2="474.267"
   y2="65.498"
   id="line171" />

<line
   fill="none"
   stroke="#868686"
   stroke-width="0.75"
   stroke-miterlimit="10"
   x1="294.208"
   y1="90.163"
   x2="474.267"
   y2="90.163"
   id="line175" />

<line
   fill="none"
   stroke="#868686"
   stroke-width="0.75"
   stroke-miterlimit="10"
   x1="294.208"
   y1="114.829"
   x2="474.267"
   y2="114.829"
   id="line179" />

<line
   fill="none"
   stroke="#868686"
   stroke-width="0.75"
   stroke-miterlimit="10"
   x1="294.208"
   y1="139.494"
   x2="474.267"
   y2="139.494"
   id="line183" />

<line
   fill="none"
   stroke="#868686"
   stroke-width="0.75"
   stroke-miterlimit="10"
   x1="294.208"
   y1="164.16"
   x2="474.267"
   y2="164.16"
   id="line187" />

<line
   fill="none"
   stroke="#868686"
   stroke-width="0.75"
   stroke-miterlimit="10"
   x1="294.208"
   y1="188.826"
   x2="474.267"
   y2="188.826"
   id="line191" />

<line
   fill="none"
   stroke="#868686"
   stroke-width="0.75"
   stroke-miterlimit="10"
   x1="294.208"
   y1="213.491"
   x2="474.267"
   y2="213.491"
   id="line195" />

<line
   fill="none"
   stroke="#868686"
   stroke-width="0.75"
   stroke-miterlimit="10"
   x1="294.208"
   y1="238.157"
   x2="474.267"
   y2="238.157"
   id="line199" />

<line
   fill="none"
   stroke="#868686"
   stroke-width="0.75"
   stroke-miterlimit="10"
   x1="294.208"
   y1="262.822"
   x2="474.267"
   y2="262.822"
   id="line203" />

</svg>