<?xml version="1.0" encoding="utf-8"?>
<!-- Generator: Adobe Illustrator 16.0.0, SVG Export Plug-In . SVG Version: 6.00 Build 0)  -->
<!DOCTYPE svg PUBLIC "-//W3C//DTD SVG 1.1//EN" "http://www.w3.org/Graphics/SVG/1.1/DTD/svg11.dtd">
<svg version="1.1" id="Layer_1" xmlns="http://www.w3.org/2000/svg" xmlns:xlink="http://www.w3.org/1999/xlink" x="0px" y="0px"
	 width="500px" height="300px" viewBox="0 0 500 300" enable-background="new 0 0 500 300" xml:space="preserve">
<g>
	
		<rect x="137.013" y="28.188" transform="matrix(0.9945 0.1048 -0.1048 0.9945 17.5883 -23.8767)" fill="#429B8B" width="197.999" height="254.5"/>
	
		<rect x="148.013" y="31.514" transform="matrix(0.9978 0.0658 -0.0658 0.9978 10.9733 -15.8976)" fill="#E55B4F" width="198" height="254.499"/>
	<rect x="162.013" y="31.514" fill="#F6D268" width="198" height="254.5"/>
	<rect x="185.013" y="189.514" fill="#C78846" width="87" height="19"/>
	<rect x="185.013" y="111.514" fill="#C78846" width="87" height="19"/>
	<path fill="#8C3522" d="M280.68,138.348l5.5-3.5c0,0,2.667-1,5,1s8.333,14.5,8.333,14.5s30.833-44.334,48-53.5l1.167,3.5
		c0,0-28.667,23.333-44.667,60c0,0-5.833,2.832-7.333,4.999c0,0-6.501-19-8.834-21.167
		C287.846,144.18,284.514,139.181,280.68,138.348z"/>
	<g>
		<line fill="none" stroke="#222221" stroke-width="3" stroke-miterlimit="10" x1="326.513" y1="19.014" x2="326.513" y2="66.014"/>
		<path fill="none" stroke="#222221" stroke-width="3" stroke-miterlimit="10" d="M326.513,66.014c0,0,0.167,9.417-8.5,9.417
			s-9.5-9.583-9.5-9.583l0.5-45.081c0,0,1.333-14,13.583-14s13.5,13.25,13.5,13.25V30.6"/>
		<line fill="none" stroke="#222221" stroke-width="3" stroke-miterlimit="10" x1="300.346" y1="18.181" x2="300.346" y2="31.181"/>
	</g>
</g>
</svg>
