<?xml version="1.0" encoding="utf-8"?>
<!-- Generator: Adobe Illustrator 17.0.0, SVG Export Plug-In . SVG Version: 6.00 Build 0)  -->
<!DOCTYPE svg PUBLIC "-//W3C//DTD SVG 1.1//EN" "http://www.w3.org/Graphics/SVG/1.1/DTD/svg11.dtd">
<svg version="1.1" id="Layer_1" xmlns="http://www.w3.org/2000/svg" xmlns:xlink="http://www.w3.org/1999/xlink" x="0px" y="0px"
	 width="500px" height="300px" viewBox="0 0 500 300" enable-background="new 0 0 500 300" xml:space="preserve">
<path fill="#226666" d="M286.499,210.751l13.995-3.447l-0.11-15.194l-13.706-4.464l-2.738-15.278l10.909-9.506l-8.069-14.163
	l-14.017,4.12l-10.78-12.277l4.463-13.707l-12.903-8.389l-11.593,10.144l-15.028-4.512l-4.107-14.005l-14.51-0.527l-3.813,14.379
	l-15.928,2.066l-10.216-9.612l-14.09,6.086l2.091,15.266l-10.957,10.828l-15.039-3.851l-7.009,10.971l10.095,12.914l-5.158,14.991
	l-13.311,2.822l-0.55,15.172l13.684,5.111l2.738,15.29l-9.589,9.555l6.808,12.782l15.937-2.715l10.143,11.593l-3.875,15.699
	l12.34,5.737l11.568-9.485l15.652,5.183l2.846,12.651l15.854-0.085l4.38-11.727l15.951-2.713l8.895,9.564l12.794-6.805l-2.751-15.28
	l12.253-10.118l14.403,3.166l7.008-10.971l-9.483-11.568L286.499,210.751z M209.212,258.095
	c-32.167-1.168-57.304-28.196-56.137-60.366c1.167-32.168,28.197-57.306,60.367-56.138c32.166,1.167,57.305,28.198,56.136,60.366
	C268.412,234.125,241.382,259.261,209.212,258.095z"/>
<path fill="#2D882D" d="M351.098,75.7l9.339-3.849l-1.662-10.519l-9.965-1.664l-3.492-10.303l6.569-7.727l-7.07-8.974l-9.284,4.318
	l-8.752-7.384l1.663-9.965l-9.818-4.467l-6.976,8.24l-10.886-1.559l-4.308-9.278l-10.111,1.149l-1.142,10.363l-10.823,3.094
	l-8.083-5.595l-9.13,5.688l3.042,10.362l-6.464,8.648l-10.824-1.1l-3.713,8.335l8.344,7.897l-2.01,10.928l-8.931,3.345l1.202,10.572
	l10.017,2.114l3.493,10.311l-5.648,7.622l6.052,8.148l10.762-3.545l8.24,6.976l-1.047,11.285l9.151,2.688l7.027-7.781l11.388,1.959
	l3.293,8.471l10.979-1.714l1.812-8.585l10.772-3.545l7.163,5.7l8.157-6.052l-3.501-10.303l7.436-8.291l10.312,0.691l3.712-8.335
	l-7.78-7.028L351.098,75.7z M302.475,116.577c-22.416,2.547-42.657-13.562-45.205-35.979c-2.548-22.416,13.562-42.658,35.979-45.206
	c22.415-2.547,42.658,13.563,45.205,35.979C341.002,93.787,324.892,114.028,302.475,116.577z"/>
</svg>
