<?xml version="1.0" encoding="utf-8"?>
<!-- Generator: Adobe Illustrator 16.0.0, SVG Export Plug-In . SVG Version: 6.00 Build 0)  -->
<!DOCTYPE svg PUBLIC "-//W3C//DTD SVG 1.1//EN" "http://www.w3.org/Graphics/SVG/1.1/DTD/svg11.dtd">
<svg version="1.1" id="Layer_1" xmlns="http://www.w3.org/2000/svg" xmlns:xlink="http://www.w3.org/1999/xlink" x="0px" y="0px"
	 width="500px" height="300px" viewBox="0 0 500 300" enable-background="new 0 0 500 300" xml:space="preserve">
<rect x="59" y="170.5" fill="none" stroke="#C20E1A" stroke-miterlimit="10" width="1" height="0"/>
<g>
	<path fill="#B69066" stroke="#946E44" stroke-width="9" stroke-miterlimit="10" d="M286,13H163c0,0-15,1-15,18s1,246,1,246
		s1,14,14,14s176,0,176,0s15.5-4,15.5-15.5s0-198.5,0-198.5L306,23C306,23,298,13,286,13z"/>
	<g>
		<path fill="#7A5124" d="M229.624,137.489c0,0-15.178,6.137-19.374-6.457c0,0-6.781-17.115,19.374-30.677
			c0,0,22.606-10.979,43.916,2.583c0,0,22.931,11.949,17.116,41.011c0,0-4.521,23.896-28.74,25.833c0,0,0,16.792-12.271,17.762
			c0,0-12.271,0.32-14.209-11.303c0,0-3.873-17.438,1.938-23.896c0,0,1.292-2.906,7.427-2.906c0,0,13.886-0.968,15.502-8.396
			c0,0,5.488-11.947-8.721-16.792c0,0-11.303-2.26-14.854,5.167L229.624,137.489z"/>
		<g>
			<path fill="#7A5124" d="M250.17,200.16c-11.69,0-21.18,9.18-21.18,20.51s9.49,20.51,21.18,20.51c11.689,0,21.17-9.18,21.17-20.51
				S261.859,200.16,250.17,200.16z M249.84,231.18c-5.99,0-10.85-4.71-10.85-10.51s4.859-10.51,10.85-10.51s10.85,4.71,10.85,10.51
				S255.83,231.18,249.84,231.18z"/>
		</g>
	</g>
	<path fill="none" stroke="#946E44" stroke-width="9" stroke-miterlimit="10" d="M286,13v57c0,0,0,12,15,12s50,0,50,0"/>
</g>
</svg>
