<?xml version="1.0" encoding="utf-8"?>
<!-- Generator: Adobe Illustrator 16.0.0, SVG Export Plug-In . SVG Version: 6.00 Build 0)  -->
<!DOCTYPE svg PUBLIC "-//W3C//DTD SVG 1.1//EN" "http://www.w3.org/Graphics/SVG/1.1/DTD/svg11.dtd">
<svg version="1.1" id="Layer_1" xmlns="http://www.w3.org/2000/svg" xmlns:xlink="http://www.w3.org/1999/xlink" x="0px" y="0px"
	 width="500px" height="300px" viewBox="0 0 500 300" enable-background="new 0 0 500 300" xml:space="preserve">
<g>
	<polygon fill="#CA7556" points="263.7,4.5 406.667,75.367 406.667,88.308 116.42,88.308 116.42,76.599 	"/>
	<rect x="142.918" y="87.924" fill="#CA7556" width="239.714" height="19.72"/>
	<polygon fill="#CA7556" points="152.162,244.269 186.055,244.269 181.741,107.259 154.011,107.259 	"/>
	<polygon fill="#CA7556" points="216.25,244.269 250.144,244.269 245.83,107.259 218.099,107.259 	"/>
	<polygon fill="#CA7556" points="277.873,244.269 311.767,244.269 307.453,107.259 279.722,107.259 	"/>
	<polygon fill="#CA7556" points="340.729,244.269 374.622,244.269 370.309,107.259 342.578,107.259 	"/>
	<rect x="130.594" y="244.269" fill="#CA7556" width="267.445" height="16.021"/>
	<rect x="110.874" y="260.29" fill="#CA7556" width="302.776" height="16.022"/>
	<rect x="90.333" y="276.312" fill="#CA7556" width="338.928" height="16.021"/>
</g>
<g>
	<polygon fill="#F2A98E" points="265.104,15.334 390.666,77.974 135.754,77.974 	"/>
	<rect x="161.816" y="112.395" fill="#F2A98E" width="12.325" height="124.891"/>
	<rect x="225.905" y="112.395" fill="#F2A98E" width="12.324" height="124.891"/>
	<rect x="287.528" y="112.395" fill="#F2A98E" width="12.325" height="124.891"/>
	<rect x="350.385" y="112.395" fill="#F2A98E" width="12.324" height="124.891"/>
	<rect x="151" y="94" fill="#F2A98E" width="224" height="8"/>
	<rect x="118" y="264.5" fill="#F2A98E" width="288.666" height="7.667"/>
	<rect x="137.5" y="248.5" fill="#F2A98E" width="253.999" height="7.667"/>
	<rect x="98.333" y="280.5" fill="#F2A98E" width="324" height="7.667"/>
</g>
<rect x="59" y="170.5" fill="none" stroke="#C20E1A" stroke-miterlimit="10" width="1" height="0"/>
<g>
	<path fill="#792A0D" d="M258.29,39.526c0,0-5.644,2.282-7.204-2.401c0,0-2.521-6.364,7.204-11.407c0,0,8.405-4.083,16.329,0.96
		c0,0,8.526,4.443,6.364,15.249c0,0-1.681,8.885-10.687,9.605c0,0,0,6.244-4.562,6.604c0,0-4.562,0.12-5.283-4.202
		c0,0-1.44-6.484,0.721-8.886c0,0,0.48-1.081,2.762-1.081c0,0,5.163-0.36,5.764-3.122c0,0,2.041-4.442-3.242-6.244
		c0,0-4.203-0.84-5.523,1.921L258.29,39.526z"/>
	<ellipse fill="#792A0D" cx="264.874" cy="67.238" rx="5.703" ry="5.523"/>
</g>
</svg>
