<?xml version="1.0" encoding="utf-8"?>
<!-- Generator: Adobe Illustrator 17.0.0, SVG Export Plug-In . SVG Version: 6.00 Build 0)  -->
<!DOCTYPE svg PUBLIC "-//W3C//DTD SVG 1.1//EN" "http://www.w3.org/Graphics/SVG/1.1/DTD/svg11.dtd">
<svg version="1.1" id="Layer_1" xmlns="http://www.w3.org/2000/svg" xmlns:xlink="http://www.w3.org/1999/xlink" x="0px" y="0px"
	 width="500px" height="300px" viewBox="0 0 500 300" enable-background="new 0 0 500 300" xml:space="preserve">
<radialGradient id="SVGID_1_" cx="246.3463" cy="51.5115" r="106.8846" gradientTransform="matrix(1 0 0 0.6029 0 46.1912)" gradientUnits="userSpaceOnUse">
	<stop  offset="0" style="stop-color:#F1F1F2"/>
	<stop  offset="1" style="stop-color:#E6E7E8"/>
</radialGradient>
<path fill="url(#SVGID_1_)" d="M391.667,91.709c0,5.867-7.888,10.623-17.619,10.623H118.645c-9.731,0-17.619-4.756-17.619-10.623
	V62.79c0-5.867,7.888-10.623,17.619-10.623h255.402c9.731,0,17.619,4.756,17.619,10.623V91.709z"/>
<radialGradient id="SVGID_2_" cx="246.3463" cy="179.4602" r="125.4616" gradientTransform="matrix(1 0 0 0.7356 0 27.5881)" gradientUnits="userSpaceOnUse">
	<stop  offset="0" style="stop-color:#404041"/>
	<stop  offset="1" style="stop-color:#000000"/>
</radialGradient>
<rect x="101.026" y="84.713" fill="url(#SVGID_2_)" width="290.641" height="149.763"/>
<circle fill="#378E57" cx="122.503" cy="69.849" r="7.097"/>
<circle fill="#395481" cx="139.765" cy="69.849" r="7.097"/>
<circle fill="#C3604B" cx="157.027" cy="69.849" r="7.097"/>
<g>
	<g>
		
			<rect x="187.097" y="127.454" transform="matrix(0.7141 0.7 -0.7 0.7141 159.1965 -93.6439)" fill="#5DAB7A" width="14.311" height="41.277"/>
		
			<rect x="187.097" y="147.202" transform="matrix(-0.7115 0.7027 -0.7027 -0.7115 450.4026 150.7568)" fill="#5DAB7A" width="14.311" height="41.277"/>
	</g>
	<g>
		<polygon fill="#5DAB7A" points="296.868,167.841 306.981,157.823 278.39,128.345 268.277,138.363 		"/>
		<polygon fill="#5DAB7A" points="307.017,158.185 296.942,148.128 268.241,177.497 278.316,187.553 		"/>
	</g>
	
		<rect x="228.24" y="116.579" transform="matrix(0.9625 0.2713 -0.2713 0.9625 52.1725 -58.1372)" fill="#5DAB7A" width="16.157" height="86.032"/>
</g>
</svg>
